<svg xmlns="http://www.w3.org/2000/svg" width="513" height="513" viewBox="0 0 513 513">
<g>
<path d="M 0.07 256.51 L 0.06 513.00 L 0.00 513.00 L 0.00 0.00 L 513.00 0.00 L 513.00 0.01 L 256.53 0.02 L 0.07 0.03 ZM 335.96 283.18 C335.95,283.91 335.29,285.62 334.50,287.00 L 333.07 289.50 L 333.04 287.18 C333.02,285.90 333.67,284.18 334.50,283.36 C335.65,282.21 335.99,282.17 335.96,283.18 ZM 334.98 227.75 C335.01,229.60 334.22,229.27 332.95,226.91 C332.34,225.77 332.12,224.54 332.47,224.19 C333.21,223.45 334.96,225.93 334.98,227.75 Z" fill="rgb(217,160,82)"/>
<path d="M 511.98 116.75 C511.99,118.54 512.22,120.00 512.50,120.00 C512.78,120.00 513.00,93.00 513.00,60.00 L 513.00 513.00 L 0.06 513.00 L 58.25 512.85 C90.29,512.77 115.15,512.53 113.50,512.33 C107.62,511.59 95.37,508.74 87.50,506.27 C51.02,494.83 20.29,464.27 7.39,426.61 C4.48,418.13 2.00,405.40 2.00,398.95 C2.00,396.29 1.55,393.84 1.00,393.50 C0.51,393.19 0.19,404.26 0.07,426.40 L 0.07 295.67 C0.17,345.59 0.49,371.79 1.00,371.00 C1.53,370.17 1.98,367.09 1.98,364.15 C2.00,358.66 6.86,333.07 9.42,325.00 C15.28,306.51 24.29,285.03 33.68,267.15 L 39.11 256.80 L 30.67 240.15 C22.91,224.84 12.06,198.69 10.49,191.50 C10.13,189.85 9.42,187.38 8.91,186.00 C6.62,179.83 2.01,155.17 1.99,149.00 C1.98,146.52 1.53,143.82 1.00,143.00 C0.49,142.21 0.17,168.29 0.07,217.98 L 0.07 83.87 C0.19,108.30 0.51,120.76 1.00,120.00 C1.53,119.18 1.98,116.50 1.98,114.06 C2.01,108.04 3.73,99.31 7.05,88.41 C17.97,52.50 47.56,21.46 82.50,9.27 C94.82,4.97 104.22,2.94 115.79,2.08 C122.01,1.62 127.37,0.97 127.71,0.62 C127.99,0.34 108.35,0.10 81.48,0.02 L 256.53 0.02 L 432.90 0.02 C404.26,0.08 382.97,0.30 383.24,0.57 C383.56,0.89 388.92,1.54 395.16,2.01 C415.01,3.52 426.12,6.29 440.97,13.43 C460.13,22.63 475.13,35.00 488.80,52.88 C494.44,60.25 504.39,80.54 507.00,90.00 C509.49,99.00 511.96,112.26 511.98,116.75 ZM 253.80 420.19 C256.94,422.28 258.04,421.78 271.21,412.31 C311.91,383.04 351.56,345.97 386.55,304.49 C401.58,286.68 421.00,259.74 421.00,256.71 C421.00,254.32 417.14,248.58 402.40,229.00 C371.14,187.50 325.50,141.86 284.44,111.05 C267.99,98.70 258.22,92.00 256.67,92.00 C255.08,92.00 228.22,110.80 218.11,119.00 C189.38,142.28 159.97,170.64 135.62,198.53 C128.40,206.79 121.49,214.89 120.25,216.53 C119.01,218.16 114.93,223.55 111.18,228.50 C107.42,233.45 102.52,240.22 100.28,243.54 C98.04,246.86 95.50,250.17 94.63,250.89 C93.76,251.61 92.76,253.76 92.40,255.67 C91.87,258.48 92.21,259.63 94.18,261.82 C95.51,263.29 97.93,266.51 99.55,268.98 C101.17,271.44 106.02,277.96 110.33,283.48 C114.63,288.99 120.24,296.20 122.79,299.50 C138.47,319.81 178.80,361.36 199.96,379.00 C206.23,384.23 212.52,389.62 213.93,391.00 C215.34,392.38 217.27,393.95 218.21,394.50 C219.15,395.05 225.00,399.38 231.21,404.12 C237.42,408.86 244.47,414.03 246.88,415.62 C249.30,417.20 252.41,419.26 253.80,420.19 ZM 334.98 227.75 C334.98,227.73 334.98,227.71 334.98,227.70 C336.54,231.96 337.74,236.41 338.57,241.00 C341.23,255.66 340.29,269.73 335.94,282.72 C335.83,282.22 335.43,282.42 334.50,283.36 C333.67,284.18 333.02,285.90 333.04,287.18 L 333.07 289.50 L 334.04 287.81 C328.86,300.34 320.38,311.77 308.77,321.64 C301.29,328.01 292.39,332.87 281.50,336.55 C272.25,339.67 261.13,340.79 249.00,339.82 C240.12,339.12 230.45,336.85 228.65,335.05 C228.07,334.47 226.77,334.00 225.76,334.00 C221.12,334.00 206.58,324.53 197.99,315.91 C181.90,299.77 173.93,280.72 173.76,258.00 C173.64,241.11 175.99,231.61 184.27,215.50 C187.33,209.55 190.58,205.29 196.94,198.90 C209.07,186.71 222.40,179.39 240.26,175.14 C246.45,173.66 267.61,173.67 273.74,175.15 C302.13,182.01 323.89,200.31 333.89,224.86 C333.38,224.20 332.82,223.85 332.47,224.19 C332.12,224.54 332.34,225.77 332.95,226.91 C334.22,229.27 335.01,229.60 334.98,227.75 ZM 358.50 466.41 C362.20,467.26 370.82,467.83 381.00,467.90 C395.66,467.98 398.55,467.71 406.87,465.48 C435.19,457.90 456.76,436.75 465.05,408.44 C468.76,395.79 468.73,365.73 465.00,352.50 C464.54,350.85 463.18,345.67 461.98,341.00 C459.58,331.60 449.57,305.09 447.37,302.29 C446.03,300.58 445.90,300.59 444.48,302.50 C428.98,323.29 419.85,334.51 403.52,352.82 C387.97,370.25 355.72,401.84 341.59,413.50 C335.59,418.45 328.33,424.52 325.47,427.00 C322.60,429.48 315.94,434.65 310.66,438.50 C305.38,442.35 301.05,445.87 301.03,446.32 C300.95,448.38 335.51,461.53 347.50,463.99 C350.25,464.55 355.20,465.64 358.50,466.41 ZM 112.50 467.36 C113.60,467.65 123.28,467.74 134.00,467.56 C151.25,467.28 154.66,466.94 163.50,464.60 C178.34,460.69 194.41,455.21 204.00,450.79 L 212.50 446.87 L 209.42 444.19 C207.72,442.71 198.98,435.66 189.98,428.52 C151.72,398.15 116.38,362.82 84.93,323.46 C79.19,316.28 73.05,308.29 71.27,305.71 C67.83,300.69 66.31,299.94 65.32,302.75 C64.98,303.71 63.93,306.30 62.98,308.50 C55.92,324.93 49.38,346.22 46.87,361.00 C45.02,371.90 45.34,395.93 47.44,404.00 C50.37,415.24 51.96,419.27 56.68,427.50 C68.42,447.97 85.86,460.42 112.50,467.36 ZM 443.30 209.46 C444.28,210.86 445.55,212.00 446.10,212.00 C448.32,212.00 461.38,178.10 464.02,165.50 C467.45,149.08 468.19,141.15 467.66,126.44 C467.18,113.11 466.76,110.29 464.01,102.03 C460.10,90.26 454.28,80.41 446.12,71.75 C433.07,57.91 418.53,50.14 399.85,47.03 C389.17,45.25 364.25,46.20 352.50,48.83 C340.44,51.54 318.97,58.42 311.25,62.06 C307.81,63.67 304.60,65.00 304.12,65.00 C303.64,65.00 302.72,65.63 302.08,66.40 C301.15,67.52 301.57,68.26 304.21,70.10 C306.02,71.37 307.73,72.66 308.00,72.96 C308.27,73.27 312.77,76.73 318.00,80.65 C327.34,87.66 341.14,99.17 350.00,107.35 C352.48,109.63 359.86,116.45 366.40,122.50 C392.07,146.24 424.62,183.05 443.30,209.46 ZM 64.41 208.25 C65.30,210.31 66.39,212.00 66.83,212.00 C67.27,212.00 70.75,207.86 74.56,202.80 C108.97,157.19 160.60,105.89 204.95,73.25 C208.49,70.64 211.42,68.05 211.45,67.50 C211.59,64.81 179.88,52.90 162.00,48.93 C149.90,46.24 125.13,45.23 114.17,46.97 C96.25,49.83 81.51,57.33 68.90,70.02 C64.18,74.78 59.51,80.21 58.53,82.09 C47.69,102.84 45.72,110.19 45.69,130.00 C45.66,155.14 50.84,176.78 64.41,208.25 ZM 241.50 31.60 C249.20,35.56 255.83,38.85 256.23,38.90 C256.63,38.96 264.05,35.44 272.73,31.08 C307.99,13.39 337.67,4.23 366.86,2.04 C373.66,1.53 379.47,0.86 379.78,0.56 C379.78,0.56 379.78,0.55 379.78,0.55 C379.78,0.25 324.38,0.05 256.42,0.10 C188.26,0.15 133.62,0.56 135.00,1.00 C136.38,1.44 140.20,1.86 143.50,1.93 C163.32,2.36 193.97,9.80 215.50,19.41 C218.25,20.64 222.07,22.26 224.00,23.02 C225.93,23.77 233.80,27.63 241.50,31.60 ZM 401.50 511.98 C399.30,512.40 423.49,512.81 455.25,512.87 L 513.00 513.00 L 512.84 453.25 C512.75,420.39 512.51,395.08 512.31,397.00 C511.33,406.15 507.53,422.35 504.34,430.96 C497.52,449.36 490.03,460.78 474.85,475.90 C456.49,494.20 434.79,505.99 412.00,510.04 C408.42,510.68 403.70,511.55 401.50,511.98 ZM 511.16 360.28 C511.86,366.18 512.56,371.00 512.72,371.00 C512.87,371.00 512.92,319.36 512.83,256.25 C512.74,194.48 512.50,145.43 512.30,145.43 C512.30,145.43 512.29,145.45 512.29,145.50 C511.48,154.07 506.96,178.38 505.06,184.34 C501.35,195.97 496.58,209.96 495.46,212.50 C494.72,214.15 492.92,218.42 491.45,221.99 C489.98,225.56 485.67,234.67 481.89,242.23 C474.96,256.05 474.12,258.72 476.05,260.65 C478.23,262.83 489.40,286.07 494.96,300.00 C500.11,312.87 503.18,322.85 508.37,343.53 C509.21,346.85 510.46,354.39 511.16,360.28 ZM 157.50 510.93 L 145.50 512.78 L 256.50 512.79 C354.81,512.80 366.47,512.65 358.50,511.42 C329.48,506.94 300.86,497.23 269.74,481.29 C257.53,475.04 256.85,474.82 253.74,476.06 C251.96,476.77 249.38,478.08 248.00,478.97 C245.08,480.87 239.57,483.34 239.35,482.84 C239.28,482.65 238.38,483.23 237.35,484.13 C233.52,487.49 198.43,501.79 188.50,504.03 C186.30,504.53 181.12,505.87 177.00,507.01 C172.88,508.15 164.10,509.91 157.50,510.93 Z" fill="rgb(225,145,39)"/>
<path d="M 0.07 256.51 L 0.07 217.98 C0.17,168.29 0.49,142.21 1.00,143.00 C1.53,143.82 1.98,146.52 1.99,149.00 C2.00,152.77 3.72,163.42 5.58,172.55 C5.41,171.82 5.24,171.12 5.08,170.45 C4.55,168.23 3.55,162.49 2.86,157.70 C2.17,152.92 1.24,149.00 0.80,149.00 C0.36,149.00 0.04,197.26 0.09,256.25 C0.14,327.00 0.50,362.48 1.14,360.50 C1.67,358.85 3.38,351.42 4.93,344.00 C5.47,341.43 6.06,338.76 6.63,336.24 C4.34,346.84 2.00,360.34 1.98,364.15 C1.98,367.09 1.53,370.17 1.00,371.00 C0.49,371.79 0.17,345.59 0.07,295.67 ZM 97.09 4.92 C101.27,3.81 104.81,3.01 106.00,2.97 C106.82,2.94 108.85,2.29 110.50,1.54 C113.09,0.35 105.71,0.15 56.75,0.08 L 17.25 0.02 L 81.48 0.02 C108.35,0.10 127.99,0.34 127.71,0.62 C127.37,0.97 122.01,1.62 115.79,2.08 C109.16,2.57 103.25,3.45 97.09,4.92 ZM 409.11 3.50 C404.91,2.88 400.33,2.40 395.16,2.01 C388.92,1.54 383.56,0.89 383.24,0.57 C383.10,0.43 388.93,0.30 398.67,0.20 L 404.00 2.04 C405.68,2.62 407.54,3.15 409.11,3.50 ZM 367.00 0.87 C367.00,0.54 345.12,0.26 311.89,0.11 C352.11,0.17 379.78,0.34 379.78,0.55 C379.78,0.55 379.78,0.56 379.78,0.56 C379.47,0.86 373.66,1.53 366.86,2.04 C355.10,2.92 343.26,4.93 331.01,8.18 C341.50,5.32 351.47,3.37 360.75,2.40 C364.19,2.04 367.00,1.35 367.00,0.87 ZM 0.07 76.64 C0.15,107.96 0.44,111.67 1.53,109.15 C1.99,108.10 2.53,106.35 3.01,104.46 C2.34,108.17 1.99,111.38 1.98,114.06 C1.98,116.50 1.53,119.18 1.00,120.00 C0.51,120.76 0.19,108.30 0.07,83.87 ZM 78.27 315.00 C70.46,305.36 67.90,302.87 66.71,303.26 C64.98,303.84 62.78,308.43 57.76,322.00 C56.98,324.10 56.24,326.14 55.55,328.11 C57.84,321.29 60.38,314.56 62.98,308.50 C63.93,306.30 64.98,303.71 65.32,302.75 C66.31,299.94 67.83,300.69 71.27,305.71 C72.35,307.28 75.04,310.84 78.27,315.00 ZM 0.07 434.54 L 0.07 426.40 C0.19,404.26 0.51,393.19 1.00,393.50 C1.55,393.84 2.00,396.29 2.00,398.95 C2.00,403.98 3.51,412.82 5.55,420.49 C4.43,416.43 3.54,412.33 2.91,408.22 C2.22,403.70 1.28,400.00 0.83,400.00 C0.49,400.00 0.19,414.29 0.07,434.54 ZM 151.89 2.46 C148.93,2.17 146.12,1.99 143.50,1.93 C140.20,1.86 136.38,1.44 135.00,1.00 C134.54,0.85 140.43,0.71 151.06,0.58 C147.13,0.67 145.00,0.76 145.00,0.86 C145.00,1.24 147.90,1.89 151.89,2.46 ZM 406.76 0.13 C414.25,0.08 423.15,0.04 432.90,0.02 L 501.74 0.01 L 455.75 0.07 ZM 21.06 58.54 C23.41,54.86 25.92,51.31 28.55,48.00 C33.23,42.09 38.76,36.46 44.81,31.34 C35.69,39.20 27.63,48.42 21.06,58.54 ZM 48.09 354.75 C46.32,364.00 45.62,372.87 45.67,383.00 C45.68,383.39 45.68,383.78 45.68,384.17 C45.54,375.61 45.92,366.58 46.87,361.00 C47.21,359.02 47.62,356.93 48.09,354.75 ZM 4.09 99.29 C5.38,92.19 7.93,84.39 11.39,76.58 C9.72,80.45 8.27,84.40 7.05,88.41 C5.85,92.32 4.87,95.96 4.09,99.29 ZM 15.21 205.22 C19.46,216.09 25.70,230.34 30.67,240.15 L 37.33 253.29 L 31.06 241.00 C25.76,230.61 19.56,216.47 15.21,205.22 ZM 93.52 508.01 C100.69,509.94 108.97,511.76 113.50,512.33 C107.56,511.58 100.53,510.04 93.52,508.01 ZM 175.80 6.51 C169.93,5.16 164.15,4.07 158.69,3.29 C164.62,4.02 167.80,4.62 175.80,6.51 ZM 39.50 477.15 C48.32,485.76 58.31,493.05 69.07,498.64 C58.30,493.12 48.31,485.78 39.50,477.15 ZM 465.06 28.38 C457.73,22.57 449.79,17.66 440.97,13.43 C440.20,13.05 439.43,12.69 438.67,12.34 C439.68,12.78 440.63,13.21 441.50,13.64 C450.04,17.77 457.83,22.63 465.06,28.38 ZM 418.93 5.36 C416.73,4.84 414.45,4.38 412.07,3.97 L 412.09 3.97 C413.39,3.99 415.87,4.52 418.93,5.36 ZM 46.11 394.21 C46.40,397.69 46.83,400.90 47.43,403.95 C46.85,401.71 46.41,398.26 46.11,394.21 ZM 9.26 187.02 C9.71,188.40 10.21,190.20 10.49,191.50 C10.53,191.69 10.58,191.89 10.63,192.11 C10.59,191.94 10.54,191.78 10.50,191.62 C10.12,190.26 9.70,188.70 9.26,187.02 ZM 51.85 418.01 C53.19,421.09 54.79,424.20 56.68,427.50 C54.58,423.84 53.10,421.01 51.85,418.01 ZM 185.11 8.83 C183.30,8.34 181.49,7.88 179.68,7.43 C181.41,7.85 183.23,8.32 185.11,8.83 Z" fill="rgb(247,218,174)"/>
<path d="M 0.00 456.50 C0.00,425.42 0.37,400.00 0.83,400.00 C1.28,400.00 2.22,403.70 2.91,408.22 C8.69,445.93 35.83,482.40 70.90,499.55 C82.76,505.36 100.66,510.72 113.50,512.33 C115.15,512.53 90.29,512.77 58.25,512.85 L 0.00 513.00 L 0.00 456.50 ZM 157.50 510.93 C164.10,509.91 172.88,508.15 177.00,507.01 C181.12,505.87 186.30,504.53 188.50,504.03 C198.43,501.79 233.52,487.49 237.35,484.13 C238.38,483.23 239.28,482.65 239.35,482.84 C239.57,483.34 245.08,480.87 248.00,478.97 C249.38,478.08 251.96,476.77 253.74,476.06 C256.85,474.82 257.53,475.04 269.74,481.29 C300.86,497.23 329.48,506.94 358.50,511.42 C366.47,512.65 354.81,512.80 256.50,512.79 L 145.50 512.78 L 157.50 510.93 ZM 401.50 511.98 C403.70,511.55 408.42,510.68 412.00,510.04 C434.79,505.99 456.49,494.20 474.85,475.90 C490.03,460.78 497.52,449.36 504.34,430.96 C507.53,422.35 511.33,406.15 512.31,397.00 C512.51,395.08 512.75,420.39 512.84,453.25 L 513.00 513.00 L 455.25 512.87 C423.49,512.81 399.30,512.40 401.50,511.98 ZM 112.50 467.36 C85.86,460.42 68.42,447.97 56.68,427.50 C48.47,413.19 45.77,402.30 45.67,383.00 C45.56,362.11 48.63,346.62 57.76,322.00 C62.78,308.43 64.98,303.84 66.71,303.26 C68.18,302.77 71.73,306.68 84.66,323.00 C115.50,361.94 151.37,397.88 189.98,428.52 C198.98,435.66 207.72,442.71 209.42,444.19 L 212.50 446.87 L 204.00 450.79 C194.41,455.21 178.34,460.69 163.50,464.60 C154.66,466.94 151.25,467.28 134.00,467.56 C123.28,467.74 113.60,467.65 112.50,467.36 ZM 358.50 466.41 C355.20,465.64 350.25,464.55 347.50,463.99 C335.51,461.53 300.95,448.38 301.03,446.32 C301.05,445.87 305.38,442.35 310.66,438.50 C315.94,434.65 322.60,429.48 325.47,427.00 C328.33,424.52 335.59,418.45 341.59,413.50 C355.72,401.84 387.97,370.25 403.52,352.82 C419.85,334.51 428.98,323.29 444.48,302.50 C445.90,300.59 446.03,300.58 447.37,302.29 C449.57,305.09 459.58,331.60 461.98,341.00 C463.18,345.67 464.54,350.85 465.00,352.50 C468.73,365.73 468.76,395.79 465.05,408.44 C456.76,436.75 435.19,457.90 406.87,465.48 C398.55,467.71 395.66,467.98 381.00,467.90 C370.82,467.83 362.20,467.26 358.50,466.41 ZM 253.80 420.19 C252.41,419.26 249.30,417.20 246.88,415.62 C244.47,414.03 237.42,408.86 231.21,404.12 C225.00,399.38 219.15,395.05 218.21,394.50 C217.27,393.95 215.34,392.38 213.93,391.00 C212.52,389.62 206.23,384.23 199.96,379.00 C178.80,361.36 138.47,319.81 122.79,299.50 C120.24,296.20 114.63,288.99 110.33,283.48 C106.02,277.96 101.17,271.44 99.55,268.98 C97.93,266.51 95.51,263.29 94.18,261.82 C92.21,259.63 91.87,258.48 92.40,255.67 C92.76,253.76 93.76,251.61 94.63,250.89 C95.50,250.17 98.04,246.86 100.28,243.54 C102.52,240.22 107.42,233.45 111.18,228.50 C114.93,223.55 119.01,218.16 120.25,216.53 C121.49,214.89 128.40,206.79 135.62,198.53 C159.97,170.64 189.38,142.28 218.11,119.00 C228.22,110.80 255.08,92.00 256.67,92.00 C258.22,92.00 267.99,98.70 284.44,111.05 C325.50,141.86 371.14,187.50 402.40,229.00 C417.14,248.58 421.00,254.32 421.00,256.71 C421.00,259.74 401.58,286.68 386.55,304.49 C351.56,345.97 311.91,383.04 271.21,412.31 C258.04,421.78 256.94,422.28 253.80,420.19 ZM 281.50 336.55 C292.39,332.87 301.29,328.01 308.77,321.64 C333.71,300.43 344.19,272.05 338.57,241.00 C332.68,208.45 308.05,183.44 273.74,175.15 C267.61,173.67 246.45,173.66 240.26,175.14 C222.40,179.39 209.07,186.71 196.94,198.90 C190.58,205.29 187.33,209.55 184.27,215.50 C175.99,231.61 173.64,241.11 173.76,258.00 C173.93,280.72 181.90,299.77 197.99,315.91 C206.58,324.53 221.12,334.00 225.76,334.00 C226.77,334.00 228.07,334.47 228.65,335.05 C230.45,336.85 240.12,339.12 249.00,339.82 C261.13,340.79 272.25,339.67 281.50,336.55 ZM 511.16 360.28 C510.46,354.39 509.21,346.85 508.37,343.53 C503.18,322.85 500.11,312.87 494.96,300.00 C489.40,286.07 478.23,262.83 476.05,260.65 C474.12,258.72 474.96,256.05 481.89,242.23 C485.67,234.67 489.98,225.56 491.45,221.99 C492.92,218.42 494.72,214.15 495.46,212.50 C496.58,209.96 501.35,195.97 505.06,184.34 C506.96,178.38 511.48,154.07 512.29,145.50 C512.49,143.30 512.74,193.14 512.83,256.25 C512.92,319.36 512.87,371.00 512.72,371.00 C512.56,371.00 511.86,366.18 511.16,360.28 ZM 0.09 256.25 C0.04,197.26 0.36,149.00 0.80,149.00 C1.24,149.00 2.17,152.92 2.86,157.70 C3.55,162.49 4.55,168.23 5.08,170.45 C6.54,176.57 8.92,185.89 10.50,191.62 C13.31,201.86 23.19,225.56 31.06,241.00 L 39.12 256.79 L 33.68 267.15 C24.13,285.34 14.78,307.70 9.30,325.50 C8.45,328.25 6.49,336.58 4.93,344.00 C3.38,351.42 1.67,358.85 1.14,360.50 C0.50,362.48 0.14,327.00 0.09,256.25 ZM 64.41 208.25 C50.84,176.78 45.66,155.14 45.69,130.00 C45.72,110.19 47.69,102.84 58.53,82.09 C59.51,80.21 64.18,74.78 68.90,70.02 C81.51,57.33 96.25,49.83 114.17,46.97 C125.13,45.23 149.90,46.24 162.00,48.93 C179.88,52.90 211.59,64.81 211.45,67.50 C211.42,68.05 208.49,70.64 204.95,73.25 C160.60,105.89 108.97,157.19 74.56,202.80 C70.75,207.86 67.27,212.00 66.83,212.00 C66.39,212.00 65.30,210.31 64.41,208.25 ZM 443.30 209.46 C424.62,183.05 392.07,146.24 366.40,122.50 C359.86,116.45 352.48,109.63 350.00,107.35 C341.14,99.17 327.34,87.66 318.00,80.65 C312.77,76.73 308.27,73.27 308.00,72.96 C307.73,72.66 306.02,71.37 304.21,70.10 C301.57,68.26 301.15,67.52 302.08,66.40 C302.72,65.63 303.64,65.00 304.12,65.00 C304.60,65.00 307.81,63.67 311.25,62.06 C318.97,58.42 340.44,51.54 352.50,48.83 C364.25,46.20 389.17,45.25 399.85,47.03 C418.53,50.14 433.07,57.91 446.12,71.75 C454.28,80.41 460.10,90.26 464.01,102.03 C466.76,110.29 467.18,113.11 467.66,126.44 C468.19,141.15 467.45,149.08 464.02,165.50 C461.38,178.10 448.32,212.00 446.10,212.00 C445.55,212.00 444.28,210.86 443.30,209.46 ZM 511.98 116.75 C511.96,112.26 509.49,99.00 507.00,90.00 C504.39,80.54 494.44,60.25 488.80,52.88 C475.30,35.22 460.18,22.68 441.50,13.64 C432.89,9.47 416.30,4.02 412.09,3.97 C410.66,3.96 407.02,3.09 404.00,2.04 L 398.50 0.14 L 455.75 0.07 L 513.00 0.00 L 513.00 60.00 C513.00,93.00 512.78,120.00 512.50,120.00 C512.22,120.00 511.99,118.54 511.98,116.75 ZM 0.04 56.25 L 0.00 0.00 L 56.75 0.08 C105.71,0.15 113.09,0.35 110.50,1.54 C108.85,2.29 106.82,2.94 106.00,2.97 C103.43,3.06 89.82,6.71 82.50,9.27 C62.60,16.21 42.08,30.95 28.55,48.00 C16.32,63.40 6.71,83.78 3.94,100.15 C3.42,103.25 2.33,107.30 1.53,109.15 C0.24,112.14 0.07,106.38 0.04,56.25 ZM 241.50 31.60 C233.80,27.63 225.93,23.77 224.00,23.02 C222.07,22.26 218.25,20.64 215.50,19.41 C205.98,15.17 190.76,10.08 179.50,7.39 C166.83,4.36 164.61,3.95 154.95,2.85 C149.48,2.23 145.00,1.33 145.00,0.86 C145.00,0.39 194.83,0.00 256.00,0.00 C318.36,0.00 367.00,0.38 367.00,0.87 C367.00,1.35 364.19,2.04 360.75,2.40 C335.34,5.05 304.66,15.05 272.73,31.08 C264.05,35.44 256.63,38.96 256.23,38.90 C255.83,38.85 249.20,35.56 241.50,31.60 Z" fill="rgb(254,254,252)"/>
</g>
</svg>